<svg xmlns="http://www.w3.org/2000/svg" height="48px" viewBox="0 -960 960 960" width="48px" fill="#000000"><path d="M339-520ZM136-144q-31 0-51.5-21.13Q64-186.25 64-217v-606q0-30.75 20.5-51.88Q105-896 136-896h404q30.75 0 51.88 21.12Q613-853.75 613-823v203.5q-19 3.5-37.42 6.97-18.41 3.48-35.58 9.53v-220H136v606h200v73H136Zm200-129v-38q0-9.16 1-17.08 1-7.92 2-16.92-31 0-53-21.5t-22-52.17q0-31.66 21.58-53Q307.17-493 338-493q12 0 24 4.5t22 11.5q10-15 21-29.5t25-27.5q-20-15-43-23.5t-49-8.5q-62 0-104.5 42.95T191-419q0 59.24 42.5 102.62T336-273Zm47.5-363.68q18.5-18.67 18.5-44.5 0-25.82-18.5-44.32t-45-18.5q-26.5 0-44.5 18.68-18 18.67-18 44.5 0 25.82 18 44.32t44.5 18.5q26.5 0 45-18.68ZM517-64h-46q-31.81 0-53.41-21.59Q396-107.19 396-139v-172q0-104.83 72.62-177.42Q541.24-561 646.12-561t177.38 72.58Q896-415.83 896-311v172q0 31.81-21.59 53.41Q852.81-64 821-64h-45.39q-15.36 0-25.98-10.63Q739-85.25 739-101v-116q0-14.77 10.63-25.39Q760.25-253 776-253h72v-58q0-84.5-58.65-143.25-58.64-58.75-143-58.75Q562-513 503-454.25T444-311v58h73q14.78 0 25.39 10.61Q553-231.77 553-217v116q0 15.75-10.61 26.37Q531.78-64 517-64Z"/></svg>